<svg enable-background="new 0 0 1388 932" viewBox="0 0 1388 932" xmlns="http://www.w3.org/2000/svg"><style>.st12,.st4,.st6,.st8{fill-rule:evenodd;clip-rule:evenodd;fill:#0052ab}.st12,.st6,.st8{fill:#003864}.st12,.st8{fill:#ffeeb5}.st12{fill:#008df8}.st13{fill:#1273eb}.st14,.st17,.st21,.st22,.st23,.st25{fill-rule:evenodd;clip-rule:evenodd;fill:#00b3ff}.st17,.st21,.st22,.st23,.st25{fill:#4747ec}.st21,.st22,.st23,.st25{fill:#71cefc}.st22,.st23,.st25{fill:#3333d1}.st23,.st25{fill:#5f5ffa}.st25{fill:#ffdc79}.st29,.st30,.st31,.st32,.st33,.st34{fill-rule:evenodd;clip-rule:evenodd;fill:#0074ef}.st30,.st31,.st32,.st33,.st34{fill:#f8fafb}.st31,.st32,.st33,.st34{fill:#194c80}.st32,.st33,.st34{fill:#5eb2fc}.st33,.st34{fill:#2c8cf4}.st34{fill:#0161cd}</style><path d="M1279.7 860.1c7.5 7.8 7.3 20.2-.4 27.8-7.8 7.5-20.2 7.3-27.8-.4-7.5-7.8-7.3-20.2.4-27.8 7.8-7.6 20.3-7.4 27.8.4z" fill-rule="evenodd" clip-rule="evenodd" fill="#8181f5"/><path d="M1271.5 883.2c-2-9.1-9.7-10.2-14.7-9.9-4.2.3-8.4 1.8-10.7 1.5.2 4.6 2 9.1 5.5 12.6 7.4 7.6 19.3 7.9 27.2 1-2.3.7-5.9 1-7.3-5.2z" fill="#5f5ff6"/><path d="M212.2 58.6C136.8 97.7 57.7 165.6 86.3 321s103.3 159.7 77.8 236.4-37 226.3 35.3 262.8 272.3-82.3 396.1-10.1 319.6 106.8 488.3 72.2c168.8-34.5 229.8-79 212.8-138s-157.2-171-108.3-285.8c48.9-114.9 171.4-208.5 91.1-261.4s-137.2-24.3-174.7-87.3-120.5-99.1-169.4-88.7c-49 10.4-103.5 31.6-197.1 25.8-93.7-5.6-450.7-27.3-526 11.7z" fill-rule="evenodd" clip-rule="evenodd" fill="#0e2a47"/><path d="M392.6 106c-83.7 7.6-123.5 58.5-140.3 126.3-16.8 67.9 30 172.5 0 264.2s31.1 266.2 196.2 262c165.1-4.3 310.4-50.1 412.9 8.3 102.5 58.3 295.2-11.3 267-134.4s13.4-206.4 26.7-242.9 23.7-159-49.5-196.5-233.6-34.3-333.7-37.8S476.3 98.4 392.6 106z" fill-rule="evenodd" clip-rule="evenodd" fill="#0b2239"/><path class="st4" d="M97.7 182.6c-19.2 0-34.7 15.6-34.7 34.7 0 19.2 15.5 34.7 34.7 34.7s34.7-15.5 34.7-34.7c.1-19.1-15.5-34.7-34.7-34.7z"/><path d="M97.9 227.3c-7.6-3-12.2-9.5-22.5-12.8-8.1-2.5-10.7 6.4-11.5 10.7 3.6 15.4 17.4 26.9 33.8 26.9 19.2 0 34.7-15.5 34.7-34.7v-.9.4c-2.6 24.5-27 13.4-34.5 10.4z" fill="#04458f"/><path class="st6" d="M85.3 220.6c-3.9 1.3-5.4 5.6-4 9.5 1.8 4.9 6.9 4.4 10 7.7-3.5-.8-7-2.4-10.1-3.9-1.9-.9-3.5-2.1-4.9-3.6 0-.1-.1-.1-.1-.2-3.2-4.4-5.2-11.2-.7-15.6 4.5-4.3 11.2-3.4 16.6-1.8 7.2 2.2 14.8 4.9 22.4 3 6.6-1.7 11.6-7.3 11.6-14 0-.1-.1-.1-.1-.2-.1-.2 0-.3.1-.4v-.3c.6.7 1 1.3 1.4 2 1.9 4.3-.5 9.5-4 12.4-4.7 3.9-11.1 5.9-17 6.5-3.3.3-6.7.2-10-.4-3.8-.8-7.6-1.9-11.2-.7"/><path class="st6" d="M64.7 221.3c.2-5 2.7-9.6 6.6-12.7 10.9-8.3 23.1 1.3 34.8.3 3.1-.3 6.2-1.4 8.5-3.5 2.8-2.7 3.1-6.3 3.2-10 0-.2.1-.3.2-.4.9.1 1.8.6 2.6 1.2 1.7 3.1 1.9 7 .4 10.3-1.8 4.2-5.9 6.4-10.3 7-11.6 1.4-24.1-9-34.8-1.6-6.2 4.3-8 12.6-4.6 19.2.2.4 0 1-.5 1-5.1 0-6.2-7-6.1-10.8"/><path class="st6" d="M86.4 205.1c3.4 1.1 7.4 1.2 11 1.2 5.9-.1 11.5-1.5 15.2-6.6 2.9-4-3.7-6.6-6.9-6.1-1 .2-2.2.6-2.8 1.5-.8 1.2.3 3-1.2 3.9-1.5 1-5.3.5-6.7-.6-1.9-1.4-1.2-2.8-1.6-4.6-.6-2.2-3.9-1.2-5.2-.5-2.4 1.3-5 4.3-5.3 7.1-.4 2.5 1.4 4 3.5 4.7M97.5 186.4c-.8.3-1.4.8-2.1 1.3-.6.5-1.1.6-1.5.6-.7-.3-1.2-.8-1.3-1.6-.1-1 .7-1.6 1.6-1.7 1.7-.2 3.7.4 5.4.7-.1.4-1.6.5-2.1.7M69.4 207.2c-1.1 1-2.1 2-3 3.3v.2c-.1.2-.3.3-.5.5-.4-1.4 5-13.7 8.5-16.7 2.6-2.3 5.6-4.3 8.6-5.9 1.5-.8 5.2-1.7 6.7-.5 1.7 1.4-.3 2.2-1.4 2.8-2 1.2-3.8 2.6-5.4 4.4-1.1 1.3-1.7 2.9-2.9 4.2-1.3 1.4-3 2.6-4.7 3.6-2.2 1.2-4.1 2.5-5.9 4.1M94.7 190.4c6.4 1.6 13.7 2.9 20.3 1.9.5.2 1.1-.5.6-.9-5.7-5.3-14.5-6.1-21-1.9-.4.2-.4.8.1.9M103.1 231.8h.2c4.9-2.6 10.5-3.2 15.5-5.5 3.4-1.5 5.5-3.9 6.9-7.2.2.2.4.3.6.5 2.5 4.2 2.3 9.3.2 13.7-2 4-6.1 8.7-10.7 9.4-2.6.4-5.1-.7-7.4-1.9-2.1-1.1-4.7-2.6-5.9-4.8-1.1-1.9-.6-3.2.6-4.2"/><path d="M1182.8 89.9c0-9.3-7.6-16.9-16.9-16.9s-16.9 7.6-16.9 16.9 7.6 16.9 16.9 16.9 16.9-7.6 16.9-16.9" fill-rule="evenodd" clip-rule="evenodd" fill="#fca120"/><path class="st8" d="M1165.6 78.9c-1.2 1.5 0 3 .2 4.5.1.5.1 1 .4 1.4.4.5 1.1.5 1.6.3.4-.2.7-.5 1-.9.3-.3.5-.7.9-1 .3-.3.6 0 .9.2.4.3.7.2 1.1 0 .7-.3 1.4-.8 2.1-1.3.6-.4 1.6-.6 1.9-1.2.2-.3.2-.7.1-1.1-.3-.8-1-1.2-1.8-1.5-.3-.1-.7-.2-1-.4-.5-.4-.5-.9-.7-1.4s-.7-.8-1.2-.9c-.7-.2-1.5-.2-2.1.2-.5.4-.8 1-1.4 1.3-.8.6-1.5 1.1-2 1.8M1154.2 82.7c.3-.1.4-.2.7.1.2.2.6.5.8.2.1-.1.1-.3 0-.4-.2-.5-1-1-1.5-.7-.2.1-.3.3-.4.5 0 .1.2.3.4.3M1162.8 81.9c.1-.4-.2-.7-.6-.9-.5-.2-1.1-.2-1.4.2-.3.3-.4.7-.3 1.1.2.7 1.5 1.2 2 .5.3-.3.2-.6.3-.9M1159.5 85c-.2-.5-.7-.3-1.1-.5-.2-.1-.2-.3-.4-.5-.4-.4-.8.2-1 .5-.3.4-.5.9-.4 1.4.1.2.2.4.4.5s.5.2.7.1.4-.4.5-.5c.2-.2.5-.3.7-.4.4-.1.7-.4.6-.6"/><defs><filter id="f" x="1175.7" y="92.5" width="10" height="10" filterUnits="userSpaceOnUse"><feColorMatrix values="1 0 0 0 0 0 1 0 0 0 0 0 1 0 0 0 0 0 1 0"/></filter></defs><mask id="a" x="1175.7" y="92.5" width="10" height="10" maskUnits="userSpaceOnUse"><path d="M1175.7 92.5h10v10h-10v-10z" fill-rule="evenodd" clip-rule="evenodd" fill="#fff" filter="url(#f)"/></mask><g mask="url(#a)"><path d="M1185.7 97.5c0-2.8-2.2-5-5-5s-5 2.2-5 5 2.2 5 5 5 5-2.3 5-5" fill-rule="evenodd" clip-rule="evenodd" fill="#ffd341"/></g><path class="st12" d="M1292.6 231.2c-10-18.8-3-42.1 15.8-52.2 18.8-10 42.1-3 52.2 15.8s3 42.1-15.8 52.1c-18.8 10.1-42.1 3.1-52.2-15.7"/><path class="st13" d="M1361.2 197.6c4.3 13.1-5.4 18.3-7.6 19.4-2.2 1.2-13.3-1.6-23.3 4.9s-8.3 10.7-12.7 14.1c-4.3 3.4-10.4 3.3-19.2 3.3 11.6 12.5 30.6 16.1 46.3 7.7 18.7-10 25.7-33.2 15.9-51.9 0 .5.2 1.3.6 2.5z"/><path class="st14" d="M1303.5 217.8l.2-.4c14.5 10.1 36.4 14.5 55.8 11.2.8-.1 1.6-.3 2.4-.5-.1.2-.2.3-.2.5-.7.2-1.4.3-2.1.4-19.5 3.4-41.5-1.1-56.1-11.2"/><path class="st14" d="M1289.4 207.6c4.8 16.4 22.6 25.8 37.6 29.1l-.1.4c-15.2-3.4-33.1-12.9-37.9-29.4-.1-.4-.2-.8-.4-1.2.1-.3.1-.6.2-.9.2.6.4 1.3.6 2M1336.7 186.4l.1-.4c1.4.2 2.8.6 3.3 1.9.2.5.2 1.1 0 1.7-.3.7-.8 1.3-1.5 1.7-.1 0-.1.1-.2.1-1.3.6-2.8.4-4.1.3-3-.3-6.2-1-7.5-3.6l.4-.2c1.2 2.4 4.2 3 7.1 3.4 1.2.1 2.7.3 3.9-.2.7-.3 1.2-.9 1.5-1.5.1-.3.2-.9 0-1.4-.4-1.2-1.7-1.5-3-1.8"/><path class="st14" d="M1358.5 192.6c-1.4 2.2-3.5 3.9-5.9 5.1-3.9 2.1-8.5 3-12.5 3.2-6.1.2-12.6-1.3-18.7-4.4-2-1-4.2-2.3-5.9-4.3-2-2.3-2.6-4.7-1.9-7 .9-3 4.2-5.7 8.4-6.8 3.9-1 9.6-1.7 14.6.9l-.2.4c-4.9-2.6-10.5-1.9-14.3-.9-4.1 1.1-7.2 3.6-8.1 6.5-.7 2.1 0 4.4 1.8 6.6 1.7 1.9 3.8 3.2 5.8 4.2 6.1 3.1 12.4 4.6 18.5 4.4 6.3-.3 14.4-2.5 18.1-8.1.2-.2.3-.5.4-.8.1.1.2.3.3.4-.2.2-.3.4-.4.6"/><path class="st14" d="M1351.4 193.2l-.3-.3c2.5-2.8 2.8-5.2 1.2-8.5.3.2.6.5.8.8 1.2 2.9.7 5.3-1.7 8M1362.8 205.4c-.7.4-1.5.8-2.3 1.1-8.4 3.4-17.6 2.7-26.6 2v-.2l.1-.2c8.8.7 18 1.4 26.3-2 1.3-.5 2.5-1.2 3.7-1.9 0 .2.1.3.1.5-.4.2-.8.5-1.3.7M1301.2 191.3c.8 3.6 3.1 6.7 5.2 9.2 5.9 7 16.9 11.2 25.2 12.3l-.1.4c-8.3-1.1-19.4-5.3-25.4-12.4-2.2-2.6-4.5-5.7-5.3-9.4-.6-2.6.3-5.6 2-8.6.3-.2.6-.5.9-.7-2 3.2-3.1 6.4-2.5 9.2M1365 214.4v.5c-7.7 2.5-16 3.1-23.8 1.6l.1-.4c7.8 1.4 16.1.8 23.7-1.7M1297.6 196.2c2.9 8.3 9.4 15.4 17.4 19.1l-.2.4c-8.1-3.7-14.7-10.9-17.6-19.3-.7-2.1-1.2-4.3-1.5-6.5.1-.2.2-.3.4-.5.2 2.4.7 4.6 1.5 6.8M1345 240.4c-3.1.1-6.9.3-9.9-1.4l.2-.4c3 1.6 6.7 1.5 9.7 1.4 3.2-.1 6.9-.8 10.7-1.7-.2.2-.3.4-.5.6-3.7.8-7.2 1.4-10.2 1.5M1330 247.3c-6.5-.9-18.6-3.4-26.5-10.5l.3-.3c7.8 7 19.8 9.5 26.3 10.4 4.3.6 9 .7 14.1.5-.3.2-.7.3-1 .5-4.8.1-9.1-.1-13.2-.6M1294.5 228.5c-2-2.2-3.8-4.6-5.6-7.1-.1-.4-.2-.7-.2-1.1 1.9 2.8 4 5.4 6.2 7.9l-.4.3z"/><path class="st14" d="M1292 230.1c-.5-.9-.9-1.9-1.3-2.9 4.5 7.7 14.7 21.7 40.4 24.1-.7.1-1.4.2-2.2.2-11-1.4-20.3-5-27.6-11-4.2-3.5-7.2-7.2-9.3-10.4M1336.7 222.6c-3.3-.5-6.6-1.4-9.7-2.2l.1-.4c3.2.8 6.4 1.7 9.7 2.2 5.7.9 12 .9 20 .1v.4c-8 .9-14.4.8-20.1-.1M1297.5 211.9l-.3.3c-3.5-4.4-5.3-10.1-5.4-15.7.1-.3.3-.6.4-.9-.1 5.8 1.7 11.8 5.3 16.3M1346.4 190.8c.7-1.2.6-2.9-.2-4.4-.7-1.4-1.9-2.5-3-3.6l.3-.3c1.1 1.1 2.3 2.3 3.1 3.8.8 1.7.9 3.5.2 4.8-.6 1.1-1.7 1.8-2.6 2.3-.1 0-.2.1-.2.1-6.2 3.2-14.7 2-21-3-2-1.6-2.9-3.2-2.7-4.7.2-1.2 1.1-2.3 2.4-2.9 1.2-.6 2.5-.7 3.7-.8 1.8-.1 3.6-.1 5.1.8l-.2.4c-1.4-.9-3.2-.9-4.9-.8-1.1.1-2.4.2-3.6.7-1.2.6-2 1.6-2.1 2.6-.2 1.4.6 2.9 2.5 4.3 6.2 4.8 14.4 6 20.5 2.9 1.4-.7 2.2-1.4 2.7-2.2"/><path class="st14" d="M1312.1 178.4c-3.8 3.5-5.5 5.3-5.1 8.6.2 1.8.9 3.6 2.1 5.7 3.4 5.8 11.1 9.5 17 11.6l-.1.4c-5.9-2.1-13.7-5.9-17.2-11.8-1.3-2.2-2-4-2.2-5.8-.4-3.7 1.7-5.7 5.2-9 .6-.5 1.3-1 2.1-1.4l3-.9c-2 .7-3.6 1.5-4.8 2.6"/><defs><filter id="e" x="1095" y="692.5" width="108.7" height="67.9" filterUnits="userSpaceOnUse"><feColorMatrix values="1 0 0 0 0 0 1 0 0 0 0 0 1 0 0 0 0 0 1 0"/></filter></defs><mask id="b" x="1095" y="692.5" width="108.7" height="67.9" maskUnits="userSpaceOnUse"><path d="M1095 692.5h108.7v67.9H1095v-67.9z" fill-rule="evenodd" clip-rule="evenodd" fill="#fff" filter="url(#e)"/></mask><g mask="url(#b)"><path class="st6" d="M1106.4 759.7c3.3-.8 6.6-1.6 9.8-2.5 25.6-7 49.4-22 69.4-39.1 4.9-4.2 9.9-8.4 13.9-13.5 1.8-2.2 4.1-5.2 4.1-8.2-.1-8.4-14-1.3-17.2.1-8.8 3.7-17.6 7.5-26.4 11.2-.5.2-1.1.5-1.5.9-1 .9-.5 2.2.9 2.1.6 0 1.2-.4 1.7-.7 4.8-2.8 9.3-5.4 14.3-7.6 5.4-2.4 10.7-4.8 16.1-7.2 1.7-.7 3.5-1.5 5.2-1.1 6.8 1.7-2.5 9.3-4.4 10.9-1.2 1.1-2.5 2-3.8 3-11.5 9-23.4 17.5-35.8 25.3-14.4 9.1-29 17.8-45.6 21.8-1.7.4-5.6 2.1-6.5-.2-1.3-3 4.5-6.7 6.3-8 3.7-2.7 7.4-5.4 11.2-8.1 7.4-5.2 15-10.2 23-14.4.5-.2.1-1.1-.4-.9-8.8 3.3-16.7 8-24.2 13.5-7.3 5.3-14.4 11-20.2 17.9-5.5 7 6.8 5.7 10.1 4.8"/></g><path class="st12" d="M1150.8 694.9c15.2 0 27.6 12.3 27.6 27.6 0 15.2-12.3 27.6-27.6 27.6s-27.6-12.3-27.6-27.6c0-15.2 12.4-27.6 27.6-27.6z"/><path class="st17" d="M1166.3 712.8c-.8.4-3.1 5.1-3.3 5.7-1.2 3.7-3.3 7.6-7.6 8.3-.8.1-1.3-.7-.8-1.3 1.4-1.7 2.9-3.6-.2-3.5-.7 0-1.1-.6-1.2-1.2-.1-1.3.3-2.7 1.6-3.3.5-.2 1-.1 1.5-.3 2.9-1.1.8-6.4-2.2-5.1-.9.4-1.7-.3-1.6-1.2.2-1.7 1.3-2.6 2.9-3.1 2-.6 4 .7 5.8.5-.1-.4-.1-.7.1-1.2.7-1.7 3.4-1.2 3.2-3.6-.2-1.6-1.3-2.2-.5-4 .2-.4.4-.7.7-.9 5.2 3.1 9.3 7.8 11.6 13.4-.5.3-1.1.5-1.8.7-2.3.6-6.1-1.1-8.2.1M1123.3 722.5c0-6.1 2-11.8 5.3-16.4.1 0 3.6-.3 5.5.2.9.3 1 1.5.3 2-2 1.2-1.6 4 .2 5.2 1.8 1.1 3.9.5 5.6-.4.5-.3 5.2.3 3.2 5.6-1.7 4.9-11.8 4.5-8.7 11.6.4.9-.1 1.8-1.1 1.9-1.9.2-1.4 3.3-1 4.3.3.8.8 1.6 1.2 2.4.5 1 1.1 2.1 1.1 3.2s-.2 1.8-.8 2.3c-6.6-5.1-10.8-13-10.8-21.9"/><path class="st17" d="M1143.8 707.2c.7-.1 1.4 0 1.9.5.4.3.7.8.9 1.3.2.4.2.9.1 1.4-.1.4-.3.8-.6 1-.7.7-1.7 1.1-2.7 1-1 0-2-.4-2.8-1-.3-.2-.5-.5-.5-.8 0-.2.1-.4.2-.6.8-1.3 2-2.6 3.5-2.8"/><path d="M1163.9 741c-4.5-1.5-6.6-5.7-10.1-8.5-2.8-2.2-6.4-3.3-10-3.3s-7 1.4-10.6 1.8c-3.1.3-6.4-.7-9.2-2 2.9 12.1 13.8 21 26.8 21 8.6 0 16.2-3.9 21.3-10.1-2.3 2-5.4 2-8.2 1.1z" fill="#0161cd"/><defs><filter id="d" x="1095" y="692.5" width="108.7" height="67.9" filterUnits="userSpaceOnUse"><feColorMatrix values="1 0 0 0 0 0 1 0 0 0 0 0 1 0 0 0 0 0 1 0"/></filter></defs><mask id="c" x="1095" y="692.5" width="108.7" height="67.9" maskUnits="userSpaceOnUse"><path d="M1095 692.5h108.7v67.9H1095v-67.9z" fill-rule="evenodd" clip-rule="evenodd" fill="#fff" filter="url(#d)"/></mask><g mask="url(#c)"><path class="st4" d="M1096.4 755.2c.8-1 1.7-2 2.7-3 .8-.1 1.5-.1 2.3-.2-.7 1-1 2.1-.6 3.1 1 2.2 4.8.6 6.5.2 16.6-4.1 31.2-12.7 45.6-21.8 12.4-7.8 24.3-16.2 35.8-25.3 1.3-1 2.6-2 3.8-3 1.9-1.6 11.2-9.2 4.4-10.9-1.8-.4-3.6.3-5.2 1.1-3.2 1.4-6.5 2.9-9.7 4.3.6-.6 1.1-1.2 1.7-1.8 1-.4 2-.8 2.9-1.2 3.1-1.3 17-8.5 17.2-.1.1 3-2.3 6-4.1 8.2-4 5.1-9.1 9.3-13.9 13.5-20 17.1-43.8 32.1-69.4 39.1-3.2.9-6.6 1.7-9.8 2.5s-15.8 2-10.2-4.7"/></g><path class="st6" d="M1104.8 756.1c4.7.5 8.9-2.3 13.3-3.6 4.2-1.3 8.5-2.2 12.6-3.7 8.9-3.3 17.1-9.3 25.2-14.2s16-10 23.4-16c7-5.6 15.1-11.2 19.7-19 .1-.2.4-.1.3.1-1.3 3.7-4.3 6.4-7.1 9-3.7 3.2-7.5 6.4-11.3 9.5-7.8 6.3-16 11.7-24.6 16.9-8.2 4.9-16.4 11-25.3 14.4-4.5 1.7-9.2 2.8-13.8 4.3-3.9 1.3-8.1 4.1-12.4 3-.4-.2-.4-.8 0-.7"/><path class="st21" d="M1282.2 863.2c-1.5-1-3.1-1.7-4.9-2.3-1.6-.5-3.8-.8-5.1-2-1.2-1.1-1.2-2.5-1-4 .7.2 1.3.4 2 .7 0 1.1.2 2 2.3 2.9 1.7.7 3.4 1.4 5 2.3.6.8 1.2 1.6 1.7 2.4M1279.8 864c0 .8-1.1 1.8-1.8 1v-.1c-.4-.3-.6-.7-.8-1.2-.1-.3.1-.7.3-.8.9-.4 2.3-.1 2.3 1.1M1282.3 876.2c0-.9.4-1.6.9-2.3.8-1.2 1.4-2.5 1.7-3.8.2 1.1.3 2.2.3 3.4-.2.4-.4.8-.6 1.1-.7 1.4-.5 2.3.2 3.2-.1.6-.3 1.1-.4 1.6-1.1-1.2-2.1-2.5-2.1-3.2M1279.4 878.4c-.7-1-1.2-2.1-1.7-3.2-.1-.1.1-.3.2-.2 1.9 1.8 5.7 5.2 3 7.8-1.8 1.8-4.7 2.2-7 1.3l.2.2c1 1 1.9 2.2 3.5 2.3 1.1.1 2.6-.4 3.7-.9-.3.4-.7.9-1.1 1.3-1.1.5-2.5.6-3.5.3-2.5-.6-3.5-3.4-6.1-4.1-.2-.1-.2-.4 0-.4.8-.2 1.6 0 2.2.5h.2c2 1.1 5.1.8 6.7-1 1.3-1.5.5-2.6-.3-3.9"/><path class="st21" d="M1250.1 881c0-.1.2-.3.3-.2 1.8 2.2 3.6 4.3 6.5 4.8h.3c-3.5-1-6.6-4.3-7.2-7.8-.1-.3.2-.4.4-.4.1-.2.5-.2.6.1.4 1.9 3.3 3.5 5.1 3.5.9 0 1.4-.3 1.8-.7-.1 0-.1 0-.2-.1-2.5-2.1-4.8-5.2-4.9-8.7-.2-.4-.3-.8-.3-1.2-.1-1.8 1-4 1.7-5.6 1.5-3.3 3.8-8 7.7-8.9.3-.1.4.3.2.5-2.9 2-4.5 5.2-5.8 8.4.8-.8 1.7-1.4 2.6-2.1 1.2-.9 2.6-1.6 4-2.1-.3-.1-.6-.3-.9-.6-.2-.2-.3-.6-.2-.9.5-1.4 1.4-1.2 2.6-1.9 1.3-.2 1.6-1.3.8-3.2.9 0 1.8 0 2.7.1.3.7.4 1.6.1 2.4-.3.6-2.5 2.7-3.7 2.8.6.2 1.5.6 2.2.8.7.1 1.3.2 1.9.4 5 1.6 5 6.2 4.8 6.8 0 0-.2.5-.4.3 0 0-.3-.3-.4-.3-2-1.8-4.6-2.7-7.2-2.3 1.2.3 3.1 3.2 3.2 3.4 1.1 1.5 1.6 3.3 1.8 5 .1 1.1-.1 2.3.2 3.4.3 1.2 1 2.1 2.1 2.7 1.8 1.2.7-2.3.8-2.4 2.6-2.7 5.8 4.7.7 3.7-2.5-.5-4.1-2.4-4.5-4.8-.5-2.9-.4-5.3-2.7-7.6-1.1-1.1-2.3-1.8-3.7-2.3-.4.1-.8.1-1.2.3-1.8.7-3.6 2.3-4.1 4.1-.7 2.3 1.6 4.9 3.3 6.2.6.4 1.2.8 1.9 1 .4.1.8.1 1.1 0 .4-.1.6-.4.9-.7.1-.2.2-.5.4-.7.3-.3.5.2.6.5.4.8.7 1.7.8 2.6.2 1 .2 2.1 0 3.1-.2 1.4-.7 2.5-1.7 3.4s-2.3 1.5-3.5 2c-1.1.4-2.3.7-3.5.2-.2-.1 0-.4.2-.4 1.7.4 4.1-2.3 5.3-3.3-.3.1-.5.3-.8.4-1.6 1.2-3.7 1.9-5.4 1.7-3.2.1-6.5-2.2-7.3-5.4"/><path class="st21" d="M1260.5 857.9c.1-.3-.3-.6-.6-.4-.7.3-1.4.7-2 1.2 1.1-1.3 2.4-2.2 4-2.6.3-.1.4.3.2.5-.6.3-1.1.8-1.6 1.3"/><path class="st14" d="M1265 880.2c-.5 0-1.7 1-2.1 1.2-1.3.6-2.6.9-4.1 1.1-.3 0-.4-.5-.2-.6 1-.5 1.9-1 2.7-1.7-5.8-1.8-8.3-9.9-6.8-16.1-.1.3-.3.6-.4.8-.7 1.6-1.8 3.8-1.7 5.6 0 .5.1.9.3 1.2.1 3.4 2.3 6.5 4.9 8.7.1 0 .1.1.2.1-.4.4-.9.6-1.8.7-1.8 0-4.7-1.6-5.1-3.5-.1-.3-.5-.3-.6-.1-.2 0-.4.1-.4.4.7 3.4 3.7 6.8 7.2 7.8h-.3c-3-.5-4.8-2.5-6.5-4.8-.1-.1-.3 0-.3.2.8 3.1 4.1 5.5 7.3 5.8 1.7.2 3.8-.6 5.4-1.7.3-.1 1.9-2.3 2.2-3.4.1-.4.2-.9.2-1.3.1-.8.1-.8-.1-.4z"/><path class="st21" d="M1255.2 858.3c-.1.3-.1.9-.4 1.1-.8.7-1.8.3-2.1-.5 1.2-1.1 2.5-2 3.9-2.7-.7.7-1.1 1.3-1.4 2.1M1279 872.3c-.6 0-1.2.2-1.7-.2-.3-.3-.4-.7-.3-1.1.3-1.2 1.9-1.7 3-1.4 1.1.2 2 1 2.6 1.8.3.3.5.7.4 1.1-.1.5-.6.9-1.1.9-1.1.2-2-.5-2.9-1.1M1267.9 884.8c.1-.4.1-.8.3-1.1.2-.4.7-.2.8.1.8 2.9 1.2 5.6 4.7 6.5.6.2 1.3.3 1.9.3-2.4 1.4-4.9 2.3-7.6 2.6-1.3-2.7-1.6-6.1-.1-8.4"/><path class="st14" d="M1259 892.2c.2 0 .3-.1.5-.1-.1-1.2 1.2-1.5 2.1-1.9 1.3-.7 2-2.3 3.6-2.3.4 0 .8.4.8.8-.1 1-.5 3.6-1.5 4.7-1.9-.2-3.8-.6-5.5-1.2"/><path class="st12" d="M350 743.5c7.8 14.5 2.3 32.5-12.1 40.3-14.5 7.8-32.5 2.3-40.3-12.1-7.8-14.5-2.3-32.5 12.1-40.3s32.5-2.4 40.3 12.1z"/><path class="st13" d="M341 771.5c-.9-2.8-1.9-12.8-16.7-19.4-11.9-5.4-24.9-2.1-29.6-.6-1.4 6.6-.5 13.7 2.9 20.1 7.8 14.5 25.8 19.9 40.3 12.1 1-.5 2-1.1 2.9-1.8.8-3.6.8-8.4.2-10.4z"/><path class="st22" d="M307.8 768.7c-.3-1.4-.2-3-.7-4.3-.9-2.4-3.1-3.6-4.7-5.5-.7-.4-1-.3-1.6 0 1.7 2.2 4.1 4.8 3.6 7.5-.1.4-.6.5-.7.1-.6-2.6-2.5-4.4-4.4-6.1v.5c.1 1 .6 2 1 2.9.7 1.5 1.6 2.9 2.3 4.4.1.1-.1.2-.2.1-.9-1.2-4.5-6.2-4.3-8.9l-.1-.1c-.6-.5-.4-1.7.3-2 2.2-.9 4.7-1.2 7.1-1h.2c.1 0 2.5.2 3.5.3.3.1.5.1.8.2 2.2.6 4.4 3.8 4.8 4.8 1.6 3.6 3.5 6.9 5.8 10-2.6-.9-5.3-1.6-8-2.1-1-.2-1.8.9-1.1 1.8 1 1.1 1.4 1.2 1 1.8 0 0-2 2-3.7-1.6-.6-1.2-.7-1.7-.9-2.8m-10.2 2.9c2.7 5 6.5 8.9 11 11.6 1.2-.3 6.7-1.8 8.2-1.8 1.8-.1 3.3.7 5 .5s2.6-1.3 4.2-1.8c2.2-.6 3.9 1.1 5.5 2.4 1 .9 2 2 3 2.9 1.2-.5 2.4-1 3.6-1.6 5.9-3.2 10.3-8.1 12.9-13.7l-1.6-1.6c-3.2-2.4-5.5-.8-5.6 2.9 0 1.7.2 3.3-.2 5-.6 2.2-3.1 6-6.1 3.3-2-1.9-1.2-5.8-3.1-8s-5.2-3.1-7.6-4.4c-1.6-.9-3.1-1.9-4.6-2.9 2.5 4 5.3 7.5 9.9 9.8.2.1 0 .4-.1.3-4.9-2.1-8.8-5.4-11.8-9.8-1.2-1.8-2.2-3.9-3.4-5.9 1.6 1.1 3 2.4 4.4 3.7.2.2.5-.1.3-.3-1.7-3.6-10.5-7.6-11.1-7.9 1.1-.1 2.2-.1 3.5.3 2.6.8 4.5 2.4 6.8 3.8.4.2.7-.3.5-.6-1.7-2.1-4.7-4.1-7.9-5.1 1.8-.3 3.7-.3 5.5-.2.4 0 .5-.5.1-.7-2.6-.9-6.5-1-9.4.2 0 0 0-.1-.1-.1-.5-.2-.9-.1-1.4 0-.7.2-4.9.9-5.3 1 .9-1.9 1.3-4.3.8-6-.3-1-1.1-1.4-1.8-1.9.7 1.4.8 3.2.5 4.6-.4 1.8-2 3.6-4 3.2-.4-.1-.4-.6-.1-.8.8-.4 1.6-.5 2.2-1.2.5-.6.7-1.4.8-2.2.1-1.5-.4-3-.5-4.5-.2-.2-.3-.4-.4-.6-.9.7-1.6 1.6-1.7 3-.1 2 0 3.4-2.1 4.4-.2.1-.4-.2-.2-.4 2.8-1.8 0-4.9 1.7-7.1.4-.6 1-1.1 1.5-1.5.8-.6 1.4-1.4 2.1-2l1.4-1.4c.6-.6 1.2-1.2 1.9-1.6.6-.3 2-.6 2 .4 0 .8-.2 1.6-.1 2.3 0 .8.2 1.7.6 2.4 1.1 2.6 3.8 4.1 4.4 6.9 0 .4 0 .6.2 1 .4.8 1.7.7 1.9-.2.4-1.7.2-3.1-.4-4.4 1.1.7 2.1 1.6 2.7 3.1.1.3.5.1.5-.1 0-1.7-.9-2.9-2.2-3.9-1.2-1-2.5-1.7-3.5-2.8-.9-1.5-.8-2.7-.9-4.6-.1-1-.3-1.8-1.1-2.5-.9-.8-1.9-.9-2.9-.7-11.6 8.7-15.4 24.7-8.4 37.8"/><path class="st22" d="M328.9 781.7c-.9-.4-1.9-.7-3-.3-.6.2-1.1.6-1.7.8-.8.3-1.7.5-2.6.6-1.3 0-2.5-.3-3.7-.2-.1 0-.2 0-.3.1 0 .1 1.2.8 1.9.9 2 .5 3.8.1 5.8.1 2.3 0 4.1 1.1 5.8 2.7.8-.2 1.7-.5 2.5-.8-1.4-1.4-3-3.1-4.7-3.9z"/><path class="st22" d="M312.5 783.7c1.6-.1 3.2-.1 4.9.4 1.8.5 3 1 4.9 1.1 3 0 5-.4 7.4 1.6-6.5 1.3-13.1.4-18.9-2.4"/><path class="st23" d="M351.8 767.5c.2-2.6-.5-5.6-1.7-7.5l-.6-.9c.4 1 .8 1.9 1.1 3 .4 1.5.9 3.2-.3 4.4-.1.1-.2 0-.2-.1 1-2.4-.4-5.4-1.5-7.5-.2-.4-.5-.9-.7-1.3.2 2.7 1.1 5.6.1 7.9-.1.2-.4.2-.4-.1.3-2.5-.6-5.5-.9-8-.2-1.4-.6-3-.1-4.4.2-.4.4-.8.7-1.1.1-.5.4-.9.9-1.3.5-.5 1.3-.5 2-.9.8-.5 1.3-1 1.7-1.7.6 1.7 1 3.4 1.3 5.2-.5.3-1 .6-1.5.7-.2 0-.4-.1-.3-.4s.3-.5.4-.8.2-.7.3-1.1v-.1c-1.5 1.1-2.7 1.8-1.1 4.7 1 1.7 1.8 2.7 2.4 4.1-.2 2.6-.8 4.9-1.6 7.2M321.5 727.9c-.2 1.5-1.3 2.7-1.8 4.1-.3.7-.4 1.3-.1 2 .2.5.5.8.9 1.2.4.5.9 1.1.9 1.8 0 .6-.4 1.1-.9 1.5-.7.4-1.5.6-2.3.9-.4.1-.8.3-1.1.5-.4.2-.7.5-1.1.7-.3.1-.5.2-.8.1-.7-.3-.6-1.3-.1-1.7.3-.3.8-.4 1.1-.7.3-.4.5-.9.5-1.5 0-.9-.6-1.6-1.4-2-.6-.4-1.1-.7-1.6-1.2-.6-.6-1.2-1.3-1.5-2.2-.1-.4-.3-.7-.3-1.1 2.9-1.3 6.3-2.1 9.6-2.4M327.9 734.2c-.1.7-1.2 1-1.4.1 0-.2-.1-.4-.1-.6-1.9-1.7-2.4-3.8-1.7-5.8.7 0 1.4 0 2.1.1-.5 1-.6 2-.4 2.9.1-1.1.4-2.1.9-2.9.9.1 1.8.3 2.7.4-.8.1-1.5.6-1.7 1.7-.3 1.4-.2 2.8-.4 4.1M350.8 745.3c-.7.3-1.5.4-2.4.2-2.4-.6-4.6-3.1-6.4-4.7l-.2-.2c2.1 2.6 3.4 6.2 4.5 8.8.1.3-.3.5-.4.2-1.7-2.8-3.2-6.5-5.7-8.8 1.2 2.7 1.7 5.9 1.3 8.5-.5 3.5-4 7.1-7.3 4.2-.2-.2.1-.5.3-.4 5.1 2.3 6-3.4 5.5-6.4-.2-1.1-.4-2.1-.8-3.1-.9-3-2.6-5.2-4.9-7.3-.2-.2-.2-.5-.1-.8 0-.1 0-.2.1-.4 0-.3.2-.6.2-.8.2-.8.3-1.7.2-2.5 0-.1 0-.2-.1-.4-.6-1-1.5-1.7-2.5-2.3-.1-.1-.3-.2-.4-.2 7.5 2.1 14.2 7.1 18.2 14.5.4.7.7 1.3.9 1.9"/><path d="M37.6 642.9c-10.8 0-19.6 8.8-19.6 19.6S26.8 682 37.6 682s19.6-8.8 19.6-19.6-8.8-19.5-19.6-19.5z" fill-rule="evenodd" clip-rule="evenodd" fill="#ff9200"/><path class="st25" d="M54.1 663.7c-3.2 3-7.1 5.2-11.2 6.6-4.8 1.6-9.9 2.1-14.9 2.1-2.4 0-4.9-.1-7.4-.3.2.3.3.6.5.8 2.5.2 5 .3 7.3.3 5.3.1 10.7-.5 15.7-2.3 4.6-1.6 9.6-4.7 13.1-8.8 0-.7-.1-1.3-.1-2-.9 1.3-1.9 2.5-3 3.6M35.6 649.4c2.4-.7 4.8-1.6 7.1-2.4.1 0 .3-.1.4-.1-2 1-4 1.9-6.3 2.3-.6.1-1.3.2-1.9.3.3 0 .5 0 .7-.1m-3.3 1.2c5.2.2 10.9-1.8 15.4-4.9-2.5-1.5-5.4-2.5-8.5-2.8.3.2.6.5 1 .6-1.2 1.4-3 2.3-4.9 1.8-.3-.1-1.3-.4-1.4-.7-.1-.5.7-.7 1.1-.9 1-.4 2-.6 3.1-.7.1 0 .2-.1.2-.2h-.8c-1.8 0-3.6.3-5.2.7-.6.7-.5 1.6.8 2.6.2.2.4.3.7.4-1.5 0-2.3-1.6-1.7-3-2 .6-3.9 1.5-5.6 2.7 0 .2.1.4.2.6.4 1 1 1.6 1.7 2.1-1.1-.4-2.1-1.2-2.8-2.1-.2.2-.4.3-.6.5 0 .1.1.1.1.2 1.6 2.4 4.6 3.1 7.2 3.1M23.6 660.4c4.8 0 9.6-.4 14.3-1.4 3.9-.9 7.8-2.3 11.3-4.3 1.5-.9 3.2-1.9 4.7-3.1-.5-.7-1-1.4-1.5-2-1.1.7-2.2 1.4-3.3 2-3.2 1.7-6.6 3.1-10.2 4-3.5.9-7.2 1.4-10.8 1.5-.9 0-5.8-.1-9-.8-.1.3-.2.7-.3 1 1.5.4 3.2.6 3.8.7 4.2.6 8.6.5 12.8-.2 3.3-.5 6.5-1.4 9.7-2.6-2.1.9-4.4 1.7-6.6 2.3-4.1 1.1-8.4 1.6-12.7 1.7-2.2.1-4.3 0-6.5 0h-.8c-.1.4-.1.9-.2 1.3 1.7 0 3.7-.1 5.3-.1"/><path d="M49.3 675.9c-4.5 1.6-9.2 2.4-14 2.9-2.3.2-4.5.4-6.8.4h-1c.6.4 1.2.7 1.8 1 1 0 2-.1 2.8-.2 3.3-.2 6.6-.5 9.9-1.1 3.2-.6 6.4-1.5 9.4-2.7.6-.6 1.2-1.3 1.8-2.1-1.3.8-2.6 1.3-3.9 1.8" fill-rule="evenodd" clip-rule="evenodd" fill="#fcd250"/><path class="st25" d="M33.5 665.9c4.7-.7 9.3-2.1 13.7-3.8-1.4.6-2.8 1.2-4.2 1.7-5.4 1.9-11.2 3-17 3.1-2.6 0-5.1-.2-7.6-.6.1.4.2.8.3 1.1.6.1 1 .2 1.3.2 6.5.9 13.1.4 19.4-1.2 6-1.6 11.8-4.2 17.2-7.7-1.4 1.4-2.9 2.8-4.4 4-4 3.1-8.5 5.3-13.4 6.4-5.7 1.3-11.7 1.1-17.5.7-.2 0-.2.4 0 .4 11.1.7 21.9.1 31.1-6.7 1.6-1.2 3.2-2.5 4.6-3.9-.2-1.2-.5-2.3-.8-3.5-2.4 2.6-7.5 4.1-10.1 5.1-4.7 1.8-9.7 3.1-14.7 3.7-4.6.5-9 .3-13.3-.7 0 .5.1 1.1.2 1.6 5.1.9 10.3.8 15.2.1M20.7 652.6c.6.6 1.3 1 2 1.3 3.6 1.6 8 1.5 11.8.9 4.3-.7 8.5-2.2 12.4-4.2 1.4-.7 2.8-1.6 4.2-2.4-.4-.4-.9-.8-1.4-1.2-.2.1-.4.3-.6.4-3.1 1.8-6.3 3.4-9.7 4.6-3.4 1.1-7 1.8-10.5 1.6-2-.1-5.6-.5-7.5-2.1-.3.4-.5.7-.7 1.1"/><path d="M1174.5 102.2c-3.2.2-6.9-2.2-9.3-5s-2.5-4.8-7-7.1-8.7 3.5-8.7 3.5c1.7 7.6 8.4 13.3 16.5 13.3 4.5 0 8.6-1.8 11.6-4.7-.8-.1-1.8-.1-3.1 0z" fill="#eb7d16"/><path class="st14" d="M776.7 65.1c8.8-10.3 24.5-11.7 35.1-3.1s12 23.9 3.2 34.3-24.5 11.7-35.1 3.1c-10.6-8.7-12-24-3.2-34.3"/><path d="M819 89.5c-1.8 2.9-6.1 5.3-8.9 4.1-3.4-1.5-7.6-5.3-15.5-6.5s-14.8 1.2-16.5 2.7c-1.4 1.3-2.3 2.7-2.6 4.9 1.2 1.7 2.7 3.3 4.4 4.7 10.6 8.6 26.3 7.2 35.1-3.1 1.7-2.1 3-4.4 4-6.8z" fill="#2c8cf4"/><path class="st29" d="M804.2 67.8c2.1.2 4.7 2.1 3 4.4-.5.7-1.4 1.2-2.2 1.4-.9.2-1.9.4-2.8.2-2.1-.4-4.2-1.4-5.7-3-.2-.2-.4-.4-.4-.6s0-.4.1-.6c1.2-2.9 5.4-2.6 8-1.8M802.9 60.2c.3.9-.8 1.4-1.4.7-.1-.1-.1-.2-.2-.2h-.3c-.8.4-1.7-.4-1.1-1.2.9-.8 2.6-.5 3 .7M788.1 62.1c1.4-.3 2.8-.3 4.3.1.7.2.7 1.1.4 1.5-1 1.3-3.5 2.8-5.4 2.4-.9.3-1.8.3-2.7-.2-.6-.3-.9-1.1-.4-1.7h.1c-.2-1.7 2.1-2 3.7-2.1M792.5 57.2c.4 0 .7.3 1 .5v-.1c-.1-.1 0-.3.1-.4 0 0 .1 0 .1-.1.1-.1.3-.1.5 0 .1.1.2.1.3.2.2.1.4.3.4.6.4 2.2-3.4 1.8-3.2-.1 0-.4.4-.6.8-.6M774.7 76.3c.2.4.5.7.8 1 .7.8.7.3.3 1.3-.3.7-1 1.2-1.1 2-.3 1.5.4 3 1.7 3.8 1.3.7 3.1.6 4.2-.5.8-.7 1.1-1.8 1.6-2.7.2-.3.3-.6.5-.8 1.7-1.2 3.8-2.2 4.8-4.1.3-.5 0-1.3-.6-1.5-1.2-.5-2.4-.6-3.7-1-2-.6-1.8-1.6-2.1-3.2-.3-1.3-1.1-2.1-2.5-2-3.9.1-5.8 4.7-3.9 7.7M788.4 82.7c.6-.2 1.4 0 1.9.4.4.3.6.9.5 1.4-.1.4-.4.8-.8 1-.8.4-2.1.4-2.6-.4-.3-.4-.3-.9-.1-1.3.2-.6.6-1 1.1-1.1M798.7 83.6c.3.4.7.8 1.2.9-.2-.2-.3-.3-.4-.6-.1-.2 0-.5.1-.7.7-.8 1.6.3 2.1.7.3.3.4.6.2 1-.3.8-1.2 1.3-2.1 1.2-1.1-.1-1.7-1-2.2-1.9-.2-.6.7-1.2 1.1-.6M791.7 72.4c.5.5 1.4 0 1.3-.7.3-.2.4-.6.2-.9l-.1-.2c-.1-.1-.2-.2-.3-.2-.3-.1-.6-.1-.8.1-.7.5-.9 1.4-.3 1.9M814.3 78.3c.3-.2.6-.1.8 0 .6.4 1.3 1 .8 1.7-.3.5-1.1.6-1.5.1-.1.1-.3.1-.4.1-.3 0-.6-.2-.6-.5-.1-.6.4-1 .9-1.4M811.1 69.9c1.5.3 1.9 2 1.3 3.2-.7 1.4-2.3 2-3.9 2.2-.7 0-.9-.9-.3-1.1.8-.3 1.7-.5 2.3-1 .7-.6.6-1.4-.1-1.9-.5-.5 0-1.6.7-1.4M808.1 64.3c.2 0 .3.1.5.2.1-.1.2-.1.3-.1 1.4-.2 3 .3 3.8 1.5.2.3.2.7 0 1l-.3.3c0 .3-.3.5-.5.6-.4.4-.8.9-1.3 1.2s-1.1-.2-.8-.7l.3-.6c-1.1-.5-2.7-1.3-2.8-2.6-.1-.5.4-.9.8-.8M806.2 62.3c1-.5 1.7.9.7 1.3-.3.1-.7.1-1 .1-.4 0-.7-.4-.4-.7.2-.3.4-.5.7-.7M796.8 62.7c1.4-.4 2.9-.3 4.3.3.4.2.6.8.3 1.2-.6.6-1.5 1.1-2.3 1.2-.1 0-.2.1-.2.1-.6.1-1.1-.1-1.5-.4h-.1c-.1 0-.1-.1-.2-.2-.3-.3-.6-.7-.7-1.2-.2-.5.1-1 .4-1M803.6 77c.2.4.3.8.2 1.3-.2.5-.5.9-.9 1.2-1 .6-2.3.6-3.5.2-1.3-.4-2.3-1.4-3-2.6-.1-.2-.2-.5-.2-.8.1-.5 1-.9 1.5-1.1.6-.3 1.3-.4 2-.4 1.3 0 2.5 1 3.5 1.8.2.1.3.3.4.4zM790.5 81.5c.4.9 1.3 1.5 2.3 1.6.9.1 2.4-.2 2.7-1.2.1-.2 0-.5 0-.7-.2-.6-.6-1.2-1.2-1.5-1.2-.5-2.4.2-3.4.8-.4.2-.6.7-.4 1M813.7 86.9c.3.4.2.9.1 1.3V88c-.1-.6-.5-.5-.9-.6-.2 0-.5-.3-.5-.5.1-.6 1-.4 1.3 0m-2.4 1c.4.7 1.5 1.2 2.2.6l.1-.1v.1c-.3.4.5.9.8.5.6-.8.8-1.8.2-2.7-.5-.8-1.7-1.1-2.6-.6-1 .4-1.3 1.4-.7 2.2M803.2 93.3c.1.7-1 1.4-1.6.8l-.3-.3c-.2-.2-.2-.5-.1-.7.1-.1.1-.2.2-.3.6-.7 1.7-.2 1.8.5M806.9 91.9c.1 0 .2-.1.2-.3s.3-.3.4 0c0 .2.1.3.1.5v.3c.1.4-.1.9-.5 1-1 .3-2-.6-1.3-1.5.3-.4.8-.3 1.1 0M787.3 90.2c.9-.2 1.9.1 2.2 1s-.2 1.7-1.1 2c-.4.1-.8-.5-.4-.7-.7-.2-1.2-.9-1.3-1.6.1-.3.3-.6.6-.7M781.8 89.1c.1.1.1.2 0 .3-.2.5-.8.7-1.2.3l-.1-.1c-.1-.1-.1-.2 0-.3l.1-.2c.3-.6.9-.5 1.2 0M795.9 94.4c.9.4.9 1.4 1.3 2.2.2.4-.4.6-.6.3-.5-.6-1.4-1-1.4-1.9-.1-.5.3-.8.7-.6M791.2 96.2c.9.1 1.1 1.2.6 1.8-.2.2-.4.2-.6.1-.3.1-.4-.4-.2-.5v-.4c-.6-.2-.5-1.1.2-1M776.3 88.8c.7.4.5 1.5-.3 1.6-.9.1-1.2-.9-.6-1.5.1-.5.7-.6.9-.1"/><path class="st30" d="M212.5 335.9c-.4-2.2-1.6-2.7-1.5 1.2-1.7-.2-5.4 1.5 0 1.5.2 2.2 1.4 5.3 1.5 0 1.8.3 5.1-1.6 0-1.5.1-.4.1-.8 0-1.2zM220.5 626.9c-.4-2.2-1.6-2.7-1.5 1.2-1.4-.2-5.7 1.5 0 1.5-.3 1 1.4 5.9 1.5 0 1.6.2 5.4-1.7 0-1.5.1-.4.1 0 0-1.2zM573.5 896.9c-.4-2.2-1.6-2.7-1.5 1.2-1.4-.2-5.7 1.5 0 1.5-.3 1 1.4 5.9 1.5 0 1.6.2 5.4-1.7 0-1.5.1-.4.1-.8 0-1.2zM291.5 98.9c-.4-2.2-1.6-2.7-1.5 1.2-1.4-.2-5.7 1.5 0 1.5-.3 1 1.4 5.9 1.5 0 1.6.2 5.4-1.7 0-1.5.1-.4.1-.8 0-1.2z"/><path class="st21" d="M98.8 737.4c-.2 0-.2 0-1.3-.1.2-1.2-1.2-4-1.2 0-1.1-.1-4.1 1.2 0 1.2-.1 1.1 1.2 4.1 1.2 0 .2.1 3.7-.6 1.3-1.1M195.8 600.4c-.2 0-.2 0-1.3-.1.2-1.2-1.2-4-1.2 0-1.1-.1-4.1 1.2 0 1.2-.1 1.1 1.2 4.1 1.2 0 .2.1 3.7-.6 1.3-1.1M149.8 299.4c-.2 0-.2 0-1.3-.1.2-1.2-1.2-4-1.2 0-1.1-.1-4.1 1.2 0 1.2-.1 1.1 1.2 4.1 1.2 0 .2.1 3.7-.6 1.3-1.1M501.8 2.4c-.2 0-.2 0-1.3-.1.2-1.2-1.2-4-1.2 0-1.1-.1-4.1 1.2 0 1.2-.1 1.1 1.2 4.2 1.2 0 .2.1 3.7-.6 1.3-1.1M198.8 168.4c-.2 0-.2 0-1.3-.1.2-1.2-1.2-4-1.2 0-1.1-.1-4.1 1.2 0 1.2-.1 1.1 1.2 4.1 1.2 0 .2.1 3.7-.6 1.3-1.1M101.1 830.1c-1.9.7-.8 5.1 1.9 3.1 1.6-.8.1-3.4-1.9-3.1M541.1 910.1c-1.9.7-.8 5.1 2 3.1 1.5-.8 0-3.4-2-3.1"/><path class="st31" d="M250.8 900c-1.3.3-.6 3.6 1.4 2.3 1-.5.3-2.1-1.4-2.3"/><path class="st32" d="M410.8 900c-1.3.3-.6 3.6 1.4 2.3 1-.5.3-2.1-1.4-2.3"/><path class="st21" d="M170.8 429c-1.3.3-.6 3.6 1.4 2.3 1-.5.3-2.1-1.4-2.3"/><path class="st30" d="M1000.5 827.9c-.4-2.2-1.6-2.7-1.5 1.2-1.4-.2-5.7 1.5 0 1.5-.3 1 1.5 5.9 1.5 0 1.6.2 5.4-1.7 0-1.5.1-.4 0-.8 0-1.2zM1020.5 401.9c-.3-2.1-1.6-2.8-1.5 1.2-1-.3-5.8 1.5 0 1.5-.3 1 1.5 5.9 1.5 0 1.6.2 5.4-1.7 0-1.5.1-.4 0-.8 0-1.2zM1335.5 448.9c-.3-2.1-1.6-2.8-1.5 1.2-1-.3-5.8 1.5 0 1.5-.3 1 1.5 5.9 1.5 0 1.6.2 5.4-1.7 0-1.5.1-.4 0-.8 0-1.2zM565.5 84.9c-.4-2.2-1.6-2.7-1.5 1.2-1.4-.2-5.7 1.5 0 1.5-.3 1 1.4 5.9 1.5 0 1.6.2 5.4-1.7 0-1.5.1-.4.1-.8 0-1.2zM541.5 247.9c-.4-2.2-1.6-2.7-1.5 1.2-1.4-.2-5.7 1.5 0 1.5-.3 1 1.4 5.9 1.5 0 1.6.2 5.4-1.7 0-1.5.1-.4.1-.8 0-1.2zM479.1 719.2c-.4-2.5-1.8-3-1.7 1.3-1.6-.2-6.6 1.7 0 1.7-.2 1.6 1.7 6.5 1.7 0 1.8.2 6.2-1.9 0-1.7.1-.5.1-.9 0-1.3zM900.5 695.9c-.4-2.2-1.6-2.7-1.5 1.2-1.4-.2-5.9 1.5 0 1.5-.2 1.4 1.5 5.8 1.5 0 1.9.1 5.1-1.5 0-1.5.1-.4.1-.8 0-1.2z"/><path class="st21" d="M737.8 845.4c-.2 0-.2 0-1.3-.1.2-1.1-1.2-4.1-1.2 0-1.1-.1-4.1 1.2 0 1.2-.1 1.1 1.2 4.1 1.2 0 .2.1 3.7-.6 1.3-1.1M1380.8 93.4c-.2 0-.2 0-1.3-.1.2-1.1-1.2-4.1-1.2 0-1.1-.1-4.2 1.2 0 1.2-.1 1.1 1.2 4.2 1.1 0 .3.1 3.8-.6 1.4-1.1M1166.8 565.4c-.2 0-.2 0-1.3-.1.2-1.1-1.2-4.1-1.2 0-1.1-.1-4.2 1.2 0 1.2-.1 1.1 1.2 4.2 1.1 0 .3.1 3.8-.6 1.4-1.1M965.8 118.4c-.2 0-.2 0-1.3-.1.2-1.1-1.2-4.1-1.2 0-1.1-.1-4.1 1.2 0 1.2-.1 1.1 1.2 4.1 1.2 0 .2.1 3.7-.6 1.3-1.1M1268.8 107.4c-.2 0-.2 0-1.3-.1.2-1.1-1.2-4.1-1.2 0-1.1-.1-4.2 1.2 0 1.2-.1 1.1 1.2 4.2 1.1 0 .3.1 3.8-.6 1.4-1.1M1316.8 568.4c-.2 0-.2 0-1.3-.1.2-1.1-1.2-4.1-1.2 0-1.1-.1-4.2 1.2 0 1.2-.1 1.1 1.2 4.2 1.1 0 .3.1 3.8-.6 1.4-1.1M491.1 830.1c-1.9.7-.8 5.1 1.9 3.1 1.6-.8.1-3.4-1.9-3.1M820.8 910c-1.3.3-.6 3.6 1.4 2.3 1-.5.3-2.1-1.4-2.3"/><path class="st33" d="M1010.8 680c-1.3.3-.6 3.6 1.4 2.3 1.1-.5.2-2.3-1.4-2.3"/><path class="st21" d="M680.8 680c-1.3.3-.6 3.6 1.4 2.3 1-.5.3-2.1-1.4-2.3M850.8 819c-1.3.3-.6 3.6 1.4 2.3 1-.5.3-2.1-1.4-2.3"/><path class="st34" d="M400.8 559c-1.3.3-.6 3.6 1.4 2.3 1-.5.3-2.1-1.4-2.3"/><path class="st31" d="M290.8 519c-1.3.3-.6 3.6 1.4 2.3 1-.5.3-2.1-1.4-2.3"/><path class="st34" d="M660.8 159.1c-1.3.3-.6 3.6 1.4 2.3 1-.6.3-2.2-1.4-2.3"/><path class="st33" d="M1102.2 61.3c1-.6.2-2.8-1.3-2.1s-.7 3.5 1.3 2.1z"/><path class="st31" d="M629.8 219.1c-1.3.3-.6 3.6 1.4 2.3 1-.6.3-2.7-1.4-2.3"/><path class="st21" d="M1386.8 891.4c-.2 0-.2 0-1.3-.1.2-1.1-1.2-4.1-1.2 0-1.1-.1-4.2 1.2 0 1.2-.1 1.1 1.2 4.2 1.1 0 .3.1 3.8-.6 1.4-1.1M1194.8 923.4c-.2 0-.2 0-1.3-.1.2-1.1-1.2-4.1-1.2 0-1.1-.1-4.2 1.2 0 1.2-.1 1.1 1.2 4.2 1.1 0 .3.1 3.8-.6 1.4-1.1"/><path class="st33" d="M1230.8 769c-1.3.3-.6 3.6 1.4 2.3 1.1-.5.2-2.3-1.4-2.3"/><path class="st31" d="M830.8 229.1c-1.3.3-.6 3.6 1.4 2.3 1-.6.3-2.2-1.4-2.3"/><path class="st30" d="M55.5 508.9c-.4-2.2-1.6-2.7-1.5 1.2-.9-.3-5.9 1.4 0 1.5-.3 1 1.4 5.9 1.5 0 1.6.2 5.4-1.7 0-1.5.1-.4.1-.8 0-1.2zM1367.5 695.9c-.3-2.1-1.6-2.8-1.5 1.2-1-.3-5.8 1.5 0 1.5-.3 1 1.5 5.9 1.5 0 1.6.2 5.4-1.7 0-1.5.1-.4 0-.8 0-1.2zM60.7 895.4c-.5-2.8-2-3.4-1.8 1.5-1.7-.2-7.4 1.8 0 1.9-.2 1.8 1.9 7.3 1.9 0 .2.2 6-.7 2.7-1.7-1.2-.2 0-.2-2.8-.3.1-.4.1-.9 0-1.4zM1316.5 98.9c-.3-2.1-1.6-2.8-1.5 1.2-1-.3-5.8 1.5 0 1.5-.3 1 1.5 5.9 1.5 0 1.6.2 5.4-1.7 0-1.5.1-.4 0-.8 0-1.2zM343.5 835.9c-.4-2.2-1.6-2.7-1.5 1.2-1.4-.2-5.7 1.5 0 1.5-.3 1 1.4 5.9 1.5 0 1.6.2 5.4-1.7 0-1.5.1-.4.1-.8 0-1.2zM47.5 98.9c-.4-2.2-1.6-2.7-1.5 1.2-.9-.3-5.9 1.4 0 1.5-.3 1 1.4 5.9 1.5 0 1.6.2 5.4-1.7 0-1.5.1-.4.1-.8 0-1.2z"/><path class="st32" d="M1102.5 231.4c1-.6.2-2.8-1.3-2.1-1.6.7-.7 3.4 1.3 2.1z"/><path class="st31" d="M1232.7 301.1c1-.6.2-2.8-1.3-2.1s-.7 3.5 1.3 2.1z"/><path class="st33" d="M1372.2 382.1c1-.6.2-2.8-1.3-2.1s-.7 3.5 1.3 2.1z"/><path class="st21" d="M1232.4 471.9c1-.6.2-2.8-1.3-2.1-1.6.7-.7 3.4 1.3 2.1z"/><path class="st31" d="M111.3 71.3c1-.6.2-2.8-1.3-2.1s-.7 3.4 1.3 2.1z"/><path class="st32" d="M401.8 21.5c1-.6.2-2.8-1.3-2.1-1.6.7-.7 3.5 1.3 2.1z"/><path class="st21" d="M662.7 21.5c1-.6.2-2.8-1.3-2.1-1.6.7-.7 3.4 1.3 2.1zM452.6 181.4c1-.6.2-2.8-1.3-2.1s-.7 3.4 1.3 2.1z"/><path class="st34" d="M112.2 371.6c1-.6.2-2.8-1.3-2.1-1.6.7-.7 3.5 1.3 2.1z"/><path class="st21" d="M2.6 321.5c1-.6.2-2.8-1.3-2.1-1.6.7-.7 3.4 1.3 2.1z"/></svg>